<svg width="120" height="120" viewBox="0 0 120 120" fill="none" xmlns="http://www.w3.org/2000/svg">
<g clip-path="url(#clip0_37_431)">
<path d="M101.225 73.7501C105.9 76.8201 105.685 83.9351 100.58 86.6301L64.675 105.61C63.2345 106.372 61.6296 106.77 60 106.77C58.3704 106.77 56.7655 106.372 55.325 105.61L19.42 86.6301C14.32 83.9301 14.1 76.8201 18.775 73.7501L19.09 73.9501L55.325 93.1101C56.7655 93.8719 58.3704 94.2701 60 94.2701C61.6296 94.2701 63.2345 93.8719 64.675 93.1101L100.58 74.1301C100.803 74.0137 101.014 73.8869 101.225 73.7501ZM101.225 53.7501C102.257 54.434 103.104 55.3629 103.69 56.454C104.276 57.545 104.583 58.7641 104.583 60.0026C104.583 61.241 104.276 62.4601 103.69 63.5511C103.104 64.6422 102.257 65.5711 101.225 66.2551L100.58 66.6301L64.675 85.6101C63.3691 86.3007 61.9264 86.6934 60.4507 86.7599C58.9749 86.8265 57.5028 86.5653 56.14 85.9951L55.33 85.6101L19.42 66.6301C14.32 63.9301 14.1 56.8201 18.775 53.7501L19.09 53.9501L55.325 73.1101C56.6315 73.8014 58.0751 74.1945 59.5518 74.2611C61.0285 74.3277 62.5015 74.0661 63.865 73.4951L64.675 73.1101L100.58 54.1301C100.803 54.0137 101.014 53.8869 101.225 53.7501ZM64.675 14.3901L100.58 33.3701C105.91 36.1851 105.91 43.8201 100.58 46.6301L64.675 65.6101C63.2345 66.3719 61.6296 66.7701 60 66.7701C58.3704 66.7701 56.7655 66.3719 55.325 65.6101L19.42 46.6351C14.09 43.8201 14.09 36.1901 19.42 33.3751L55.325 14.3951C56.7655 13.6332 58.3704 13.235 60 13.235C61.6296 13.235 63.2345 13.6282 64.675 14.3901Z" fill="url(#paint0_linear_37_431)"/>
</g>
<defs>
<linearGradient id="paint0_linear_37_431" x1="60.0027" y1="13.235" x2="60.0027" y2="106.77" gradientUnits="userSpaceOnUse">
<stop stop-color="#9438FC"/>
<stop offset="1" stop-color="#12ABD5"/>
</linearGradient>
<clipPath id="clip0_37_431">
<rect width="120" height="120" fill="white"/>
</clipPath>
</defs>
</svg>
