<svg width="140" height="140" viewBox="0 0 140 140" fill="none" xmlns="http://www.w3.org/2000/svg">
<path d="M94.5 119.583L110.833 103.25V116.667H116.667V93.3333H93.3333V99.1667H106.75L90.4167 115.5L94.5 119.583ZM105 134.167C96.9306 134.167 90.0511 131.322 84.3617 125.633C78.6722 119.943 75.8295 113.066 75.8333 105C75.8333 96.9306 78.6781 90.0511 84.3675 84.3617C90.057 78.6722 96.9344 75.8295 105 75.8333C113.069 75.8333 119.949 78.6781 125.638 84.3675C131.328 90.057 134.171 96.9344 134.167 105C134.167 113.069 131.322 119.949 125.633 125.638C119.943 131.328 113.066 134.171 105 134.167ZM40.8333 52.5H99.1667V40.8333H40.8333V52.5ZM68.1042 122.5H29.1667C25.9583 122.5 23.2108 121.357 20.9242 119.07C18.6375 116.783 17.4961 114.038 17.5 110.833V29.1667C17.5 25.9583 18.6433 23.2108 20.93 20.9242C23.2167 18.6375 25.9622 17.4961 29.1667 17.5H110.833C114.042 17.5 116.789 18.6433 119.076 20.93C121.363 23.2167 122.504 25.9622 122.5 29.1667V68.25C119.681 66.8889 116.836 65.8681 113.966 65.1875C111.096 64.507 108.107 64.1667 105 64.1667C103.931 64.1667 102.933 64.19 102.008 64.2367C101.082 64.2833 100.135 64.4058 99.1667 64.6042V64.1667H40.8333V75.8333H76.5625C74.8125 77.4861 73.2317 79.2847 71.82 81.2292C70.4083 83.1736 69.1697 85.2639 68.1042 87.5H40.8333V99.1667H64.6042C64.4097 100.139 64.2872 101.088 64.2367 102.013C64.1861 102.939 64.1628 103.934 64.1667 105C64.1667 108.208 64.4583 111.199 65.0417 113.972C65.625 116.744 66.6458 119.587 68.1042 122.5Z" fill="url(#paint0_linear_136_463)"/>
<defs>
<linearGradient id="paint0_linear_136_463" x1="75.8333" y1="17.5" x2="75.8333" y2="134.167" gradientUnits="userSpaceOnUse">
<stop stop-color="#9438FC"/>
<stop offset="1" stop-color="#12ABD5"/>
</linearGradient>
</defs>
</svg>
