<svg width="140" height="140" viewBox="0 0 140 140" fill="none" xmlns="http://www.w3.org/2000/svg">
<g clip-path="url(#clip0_136_461)">
<path d="M45.5 91C44.9772 91 44.4544 91.0766 43.9556 91.2384C41.1206 92.1594 38.139 92.75 35 92.75C31.8609 92.75 28.8794 92.1594 26.0422 91.2384C25.5434 91.0766 25.0228 91 24.5 91C10.9244 91 -0.0722003 102.042 -1.2825e-05 115.636C0.0306122 121.38 4.75342 126 10.5 126H59.5C65.2465 126 69.9694 121.38 70 115.636C70.0722 102.042 59.0756 91 45.5 91ZM35 84C46.5981 84 56 74.5981 56 63C56 51.4019 46.5981 42 35 42C23.4019 42 14 51.4019 14 63C14 74.5981 23.4019 84 35 84ZM129.5 14H45.5C39.7097 14 35 18.8672 35 24.8478V35C40.1231 35 44.8656 36.4831 49 38.8938V28H126V91H112V77H84V91H67.3225C71.5006 94.6509 74.5675 99.4722 76.0047 105H129.5C135.29 105 140 100.133 140 94.1522V24.8478C140 18.8672 135.29 14 129.5 14Z" fill="url(#paint0_linear_136_461)"/>
</g>
<defs>
<linearGradient id="paint0_linear_136_461" x1="69.9998" y1="14" x2="69.9998" y2="126" gradientUnits="userSpaceOnUse">
<stop stop-color="#9438FC"/>
<stop offset="1" stop-color="#12ABD5"/>
</linearGradient>
<clipPath id="clip0_136_461">
<rect width="140" height="140" fill="white"/>
</clipPath>
</defs>
</svg>
